<svg viewBox="0 0 80.69 80.69" xmlns="http://www.w3.org/2000/svg" xmlns:xlink="http://www.w3.org/1999/xlink" overflow="hidden"><defs></defs><g id="Ebene_2"><g id="Ebene_1-2"><path d="M40.35 0C18.0653 0.0290677 0.0235968 18.1179 0.0526645 40.4026 0.0817322 62.6873 18.1706 80.729 40.4553 80.6999 48.5577 80.6894 56.4692 78.2398 63.16 73.67L56.63 64.17C43.4901 73.1722 25.5403 69.818 16.5381 56.6781 7.53585 43.5381 10.8901 25.5884 24.03 16.5861 37.1699 7.5839 55.1197 10.9382 64.1219 24.0781 67.4049 28.8699 69.1644 34.5414 69.17 40.35L69.17 43.35C69.17 45.81 68.62 49.95 64.94 49.95L63.41 49.95C62.29 49.95 60.02 47.72 59.95 46.61L59.95 40.35 59.95 40.35C60.0746 29.4044 51.3025 20.4302 40.357 20.3056 29.4114 20.181 20.4372 28.9531 20.3126 39.8987 20.1879 50.8442 28.96 59.8184 39.9056 59.943 44.373 59.9939 48.7265 58.534 52.26 55.8 55.15 59.13 59.26 61.49 63.4 61.49L64.94 61.49C74.22 61.49 80.69 54.04 80.69 43.37L80.69 40.37C80.679 18.0905 62.6294 0.0275766 40.35-1.06812e-06ZM40.35 48.42C35.8931 48.42 32.28 44.8069 32.28 40.35 32.28 35.8931 35.8931 32.28 40.35 32.28 44.8069 32.28 48.42 35.8931 48.42 40.35 48.4145 44.8086 44.7986 48.42 40.34 48.42Z" fill="#FFFFFF"/></g></g></svg>